# xmcd CD database file generated by Grip 2.96
# 
# Track frame offsets:
#       150
#       17636
#       34980
#       52542
#       74149
#       93214
#       112513
#       129313
#       143797
#       160395
#       181569
#       193205
#       207466
# 
# Disc length: 2880 seconds
# 
# Revision: 0
# Processed by: cddbd v1.4b42PL1 Copyright (c) Steve Scherf et al.
# Submitted via: Grip 2.96
# 
DISCID=aa0b3e0d
DTITLE=BlueSpeak - Dark Blue
DYEAR=1900
DGENRE=
TTITLE0=Gently She Breathes
TTITLE1=The Girl with the Key
TTITLE2=Beach Ball
TTITLE3=I Have To Go
TTITLE4=Let It Slide
TTITLE5=Slow Dance
TTITLE6=Spring is Blue
TTITLE7=Tanglefoot
TTITLE8=Dream Theme
TTITLE9=Rio Triste
TTITLE10=Frosted Windows
TTITLE11=Evaporate
TTITLE12=Gibby's March
EXTD=
EXTT0=
EXTT1=
EXTT2=
EXTT3=
EXTT4=
EXTT5=
EXTT6=
EXTT7=
EXTT8=
EXTT9=
EXTT10=
EXTT11=
EXTT12=
PLAYORDER=
